<?xml version="1.0" standalone="no"?>
<!DOCTYPE svg PUBLIC "-//W3C//DTD SVG 20010904//EN"
 "http://www.w3.org/TR/2001/REC-SVG-20010904/DTD/svg10.dtd">
<svg version="1.0" xmlns="http://www.w3.org/2000/svg"
 width="218.000000pt" height="218.000000pt" viewBox="0 0 218.000000 218.000000"
 preserveAspectRatio="xMidYMid meet">
<metadata>
Created by potrace 1.11, written by Peter Selinger 2001-2013
</metadata>
<g transform="translate(0.000000,218.000000) scale(0.100000,-0.100000)"
fill="#000000" stroke="none">
<path d="M1975 1739 c-142 -58 -434 -128 -641 -153 -117 -15 -449 -15 -554 -1
-175 23 -381 75 -543 137 -43 17 -81 28 -84 25 -2 -3 13 -29 34 -59 22 -29 73
-102 114 -163 247 -362 241 -355 272 -350 12 2 63 6 112 10 99 7 291 34 365
51 14 3 34 8 45 10 289 57 608 199 795 353 86 71 167 162 143 160 -4 0 -30 -9
-58 -20z"/>
<path d="M1770 1409 c-123 -102 -122 -101 -145 -114 -11 -6 -56 -34 -100 -63
-155 -102 -458 -239 -697 -317 l-87 -28 53 -76 c29 -42 73 -105 98 -141 159
-231 211 -305 213 -308 2 -2 43 57 92 130 360 534 519 771 528 786 6 9 12 19
15 22 7 7 121 180 118 179 -2 0 -41 -32 -88 -70z"/>
</g>
</svg>
